HIERARCHY
ROOT Hips
{
	OFFSET 0.00000 0.00000 0.00000
	CHANNELS 6 Xposition Yposition Zposition Zrotation Yrotation Xrotation 
	JOINT LHipJoint
	{
		OFFSET 0 0 0
		CHANNELS 3 Zrotation Yrotation Xrotation
		JOINT LeftHip
		{
			OFFSET 1.54859 -1.61379 0.86856
			CHANNELS 3 Zrotation Yrotation Xrotation
			JOINT LeftKnee
			{
				OFFSET 2.25087 -6.18423 0.00000
				CHANNELS 3 Zrotation Yrotation Xrotation
				JOINT LeftAnkle
				{
					OFFSET 2.40328 -6.60297 0.00000
					CHANNELS 3 Zrotation Yrotation Xrotation
					JOINT LeftToe
					{
						OFFSET 0.17435 -0.47901 2.02453
						CHANNELS 3 Zrotation Yrotation Xrotation
						End Site
						{
							OFFSET 0.00000 -0.00000 1.04844
						}
					}
				}
			}
		}
	}
	JOINT RHipJoint
	{
		OFFSET 0 0 0
		CHANNELS 3 Zrotation Yrotation Xrotation
		JOINT RightHip
		{
			OFFSET -1.54669 -1.61379 0.86856
			CHANNELS 3 Zrotation Yrotation Xrotation
			JOINT RightKnee
			{
				OFFSET -2.28132 -6.26789 0.00000
				CHANNELS 3 Zrotation Yrotation Xrotation
				JOINT RightAnkle
				{
					OFFSET -2.51636 -6.91365 0.00000
					CHANNELS 3 Zrotation Yrotation Xrotation
					JOINT RightToe
					{
						OFFSET -0.15124 -0.41552 2.21090
						CHANNELS 3 Zrotation Yrotation Xrotation
						End Site
						{
							OFFSET -0.00000 -0.00000 1.13399
						}
					}
				}
			}
		}
	}
	JOINT lowerback
	{
		OFFSET 0 0 0
		CHANNELS 3 Zrotation Yrotation Xrotation
		JOINT Chest
		{
			OFFSET -0.04287 2.26161 -0.25690
			CHANNELS 3 Zrotation Yrotation Xrotation
			JOINT Chest2
			{
				OFFSET 0.02248 2.28395 -0.10140
				CHANNELS 3 Zrotation Yrotation Xrotation
				JOINT lowerneck
				{
					OFFSET 0 0 0
					CHANNELS 3 Zrotation Yrotation Xrotation
					JOINT Neck
					{
						OFFSET -0.11644 1.38496 0.11345
						CHANNELS 3 Zrotation Yrotation Xrotation
						JOINT Head
						{
							OFFSET 0.29383 1.36600 0.06642
							CHANNELS 3 Zrotation Yrotation Xrotation
							End Site
							{
								OFFSET 0.11075 1.41395 -0.00294
							}
						}
					}
				}
				JOINT LeftCollar
				{
					OFFSET 0 0 0
					CHANNELS 3 Zrotation Yrotation Xrotation
					JOINT LeftShoulder
					{
						OFFSET 3.51628 0.59542 -0.30346
CHANNELS 3 Zrotation Xrotation Yrotation
						JOINT LeftElbow
						{
OFFSET 0 -4.764050 0.000000
CHANNELS 3 Zrotation Xrotation Yrotation
							JOINT LeftWrist
							{
OFFSET 0 -3.137590 -0.000000
CHANNELS 3 Zrotation Xrotation Yrotation
								JOINT lhand
								{
									OFFSET 0 0 0
CHANNELS 3 Zrotation Xrotation Yrotation
									JOINT LFingers
									{
OFFSET 0 -0.732260 -0.000000
CHANNELS 3 Zrotation Xrotation Yrotation
										End Site
										{
OFFSET 0 -0.590370 -0.000000
										}
									}
								}
								JOINT LThumb
								{
OFFSET 0 0.000000 0.000000
CHANNELS 3 Zrotation Xrotation Yrotation
									End Site
									{
OFFSET 0 -0.599380 0.599380
									}
								}
							}
						}
					}
				}
				JOINT RightCollar
				{
					OFFSET 0 0 0
					CHANNELS 3 Zrotation Yrotation Xrotation
					JOINT RightShoulder
					{
						OFFSET -3.30990 0.84213 -0.36430
CHANNELS 3 Zrotation Xrotation Yrotation
						JOINT RightElbow
						{
OFFSET 0 -5.101610 -0.000000
CHANNELS 3 Zrotation Xrotation Yrotation
							JOINT RightWrist
							{
OFFSET 0 -3.232670 -0.000000
CHANNELS 3 Zrotation Xrotation Yrotation
								JOINT rhand
								{
									OFFSET 0 0 0
CHANNELS 3 Zrotation Xrotation Yrotation
									JOINT RFingers
									{
OFFSET 0 -0.702000 -0.000000
CHANNELS 3 Zrotation Xrotation Yrotation
										End Site
										{
OFFSET 0 -0.565970 -0.000000
										}
									}
								}
								JOINT RThumb
								{
OFFSET 0 0.000000 0.000000
CHANNELS 3 Zrotation Xrotation Yrotation
									End Site
									{
OFFSET 0 -0.574610 0.574610
									}
								}
							}
						}
					}
				}
			}
		}
	}
}
MOTION
Frames: 7
Frame Time: 0.008333333333333333
3.050787 13.618617 -4.727213 -0.116945 -29.674753 11.956851 0.000000 0.000000 0.000000 1.430918 13.554060 -34.825358 11.329238 18.089915 63.843161 1.933982 -6.982233 -24.993474 7.598658 -15.815772 -51.103525 0.000000 0.000000 0.000000 -3.621839 -5.704352 -65.904039 -7.702144 -15.887364 51.468943 0.061059 -10.879701 -14.537144 -3.287954 11.144754 -32.772398 -5.284846 0.002486 42.181478 6.631348 -2.007754 12.971570 10.727391 -1.615678 -5.318593 -15.217866 -9.924561 -4.665235 35.106350 -7.908157 -33.893441 16.430826 -6.345340 -6.347875 0.000000 0.000000 0.000000 19.291336 -10.154111 5.072766 35.496607 -45.153594 15.167733 29.362524 -42.623030 -13.000032 0.000000 0.000000 0.000000 -7.125000 0.000000 0.000000 1.900732 44.808281 0.008811 0.000000 0.000000 0.000000 -15.567266 -10.008130 -10.001263 -99.828516 -59.630306 -68.501107 -59.129817 -85.968444 -42.380316 0.000000 0.000000 0.000000 7.125000 0.000000 0.000000 -10.047200 -29.982115 -13.853351
2.834561 13.609063 -4.613013 -0.003642 -29.758854 11.785489 0.000000 0.000000 0.000000 2.047157 13.985966 -33.264480 11.007449 17.935871 62.802182 1.836181 -7.107158 -24.322852 7.656184 -15.860332 -51.314429 0.000000 0.000000 0.000000 -3.700493 -5.694033 -65.697418 -7.297670 -15.572527 49.982844 0.077655 -10.971838 -14.394505 -3.302317 11.167365 -32.848353 -5.040232 -0.302327 41.901736 6.649400 -2.271698 12.969864 10.712577 -1.740723 -5.195096 -15.290443 -9.822536 -4.665501 34.555406 -7.876425 -33.765942 16.174650 -6.249653 -6.374281 0.000000 0.000000 0.000000 18.933654 -9.948730 5.080803 34.551342 -44.481005 14.500811 29.253265 -41.655973 -12.844709 0.000000 0.000000 0.000000 -7.125000 0.000000 0.000000 1.811861 44.618676 0.016734 0.000000 0.000000 0.000000 -15.346483 -9.996842 -9.335775 -98.877079 -59.695794 -67.679731 -58.831334 -85.105018 -42.400314 0.000000 0.000000 0.000000 7.125000 0.000000 0.000000 -9.903343 -29.805685 -13.640427
2.616636 13.598671 -4.497722 0.122731 -29.852624 11.651582 0.000000 0.000000 0.000000 2.655428 14.317410 -31.704034 10.676448 17.769952 61.722403 1.736501 -7.233531 -23.625687 7.702773 -15.896086 -51.484682 0.000000 0.000000 0.000000 -3.680054 -5.763621 -65.597197 -6.953717 -15.287278 48.689473 0.120058 -11.078363 -13.838142 -3.179195 10.977708 -32.206888 -4.684853 -0.574279 41.516660 6.689833 -2.450964 12.990007 10.625062 -1.824938 -5.036859 -15.519105 -9.850460 -4.688402 34.084243 -8.014076 -33.728069 15.970317 -6.232022 -6.352168 0.000000 0.000000 0.000000 18.451656 -9.916817 4.946304 33.657969 -43.820874 13.878651 29.097442 -40.665088 -12.748181 0.000000 0.000000 0.000000 -7.125000 0.000000 0.000000 1.674802 44.489694 0.020723 0.000000 0.000000 0.000000 -15.252172 -10.047469 -8.940258 -97.658665 -59.772524 -66.627286 -58.698756 -84.399529 -42.436856 0.000000 0.000000 0.000000 7.125000 0.000000 0.000000 -9.826072 -29.753876 -13.528879
2.396652 13.588996 -4.381468 0.242571 -29.927133 11.528300 0.000000 0.000000 0.000000 3.282446 14.554450 -30.129561 10.340503 17.593810 60.616339 1.633623 -7.320262 -22.890268 7.776006 -15.951572 -51.751107 0.000000 0.000000 0.000000 -3.541387 -5.924124 -65.539189 -6.659337 -15.035675 47.569274 0.142037 -11.069478 -13.442915 -3.007306 10.699933 -31.281607 -4.317080 -0.869988 41.106059 6.666040 -2.658483 12.959995 10.469653 -1.914031 -4.921910 -15.873691 -9.827424 -4.701571 33.772650 -8.071639 -33.511389 15.851060 -6.165780 -6.268984 0.000000 0.000000 0.000000 18.029344 -9.701084 4.835116 32.901192 -43.250361 13.355527 28.823167 -39.873861 -12.624429 0.000000 0.000000 0.000000 -7.125000 0.000000 0.000000 1.431102 44.315881 0.022654 0.000000 0.000000 0.000000 -15.044508 -10.048792 -8.485840 -96.284372 -59.843549 -65.439319 -58.628480 -83.745337 -42.491609 0.000000 0.000000 0.000000 7.125000 0.000000 0.000000 -9.767838 -29.759134 -13.447509
2.174195 13.580180 -4.264059 0.354562 -29.978499 11.417786 0.000000 0.000000 0.000000 3.931988 14.678065 -28.538235 9.998618 17.405384 59.478693 1.526901 -7.359366 -22.108887 7.881251 -16.030764 -52.133080 0.000000 0.000000 0.000000 -3.260670 -6.193859 -65.531900 -6.424519 -14.824496 46.657138 0.139476 -10.921928 -13.241290 -2.776821 10.316285 -30.015323 -3.934418 -1.194242 40.664790 6.565080 -2.899950 12.869722 10.232668 -2.008982 -4.858970 -16.379574 -9.743159 -4.703049 33.652778 -8.032979 -33.079871 15.834020 -6.041131 -6.112422 0.000000 0.000000 0.000000 17.678742 -9.264494 4.751935 32.308533 -42.787521 12.951391 28.406572 -39.322521 -12.467965 0.000000 0.000000 0.000000 -7.125000 0.000000 0.000000 1.059274 44.088204 0.022112 0.000000 0.000000 0.000000 -14.700654 -9.990876 -7.960651 -94.722793 -59.907720 -64.088524 -58.633061 -83.152776 -42.568240 0.000000 0.000000 0.000000 7.125000 0.000000 0.000000 -9.732477 -29.832957 -13.402397
1.949589 13.574432 -4.146170 0.478720 -30.033267 11.286988 0.000000 0.000000 0.000000 4.577231 14.731625 -26.910036 9.655502 17.208277 58.325896 1.405258 -7.393857 -21.184330 7.975164 -16.100795 -52.472899 0.000000 0.000000 0.000000 -2.934355 -6.469584 -65.497441 -6.228432 -14.645121 45.889889 0.137437 -10.807226 -13.085367 -2.544167 9.908994 -28.690128 -3.558954 -1.512945 40.201798 6.437367 -3.143211 12.783685 9.968220 -2.104497 -4.785179 -16.509414 -9.647334 -4.598161 33.298370 -8.001622 -32.764401 15.665894 -5.953232 -6.066127 0.000000 0.000000 0.000000 17.326429 -8.791051 4.731045 31.789851 -42.377207 12.599552 27.957193 -38.929466 -12.279469 0.000000 0.000000 0.000000 -7.125000 0.000000 0.000000 0.662341 43.822505 0.016979 0.000000 0.000000 0.000000 -14.323347 -9.964741 -7.441744 -93.024674 -59.956240 -62.618948 -58.542566 -82.395378 -42.543681 0.000000 0.000000 0.000000 7.125000 0.000000 0.000000 -9.703628 -29.752044 -13.357034
1.722060 13.572856 -4.027629 0.619424 -30.092661 11.128604 0.000000 0.000000 0.000000 5.216627 14.689911 -25.231687 9.310712 16.999364 57.152496 1.263323 -7.422077 -20.065054 8.053666 -16.158367 -52.755390 0.000000 0.000000 0.000000 -2.546029 -6.753454 -65.426031 -6.085020 -14.508997 45.319687 0.136107 -10.737194 -12.991597 -2.308561 9.469547 -27.284815 -3.193282 -1.824098 39.709261 6.273271 -3.388913 12.703410 9.666424 -2.200778 -4.696630 -16.127835 -9.535785 -4.348618 32.624992 -7.980199 -32.606756 15.292293 -5.915310 -6.169796 0.000000 0.000000 0.000000 16.971788 -8.267488 4.794871 31.371778 -42.038326 12.318834 27.463228 -38.751678 -12.047409 0.000000 0.000000 0.000000 -7.125000 0.000000 0.000000 0.231267 43.505097 0.005603 0.000000 0.000000 0.000000 -13.900547 -9.981831 -6.931379 -91.140860 -59.983475 -60.987830 -58.322768 -81.413801 -42.381505 0.000000 0.000000 0.000000 7.125000 0.000000 0.000000 -9.683633 -29.460689 -13.311332
